Coordinates
version=1
nRows=29
nColumns=22
inDegrees=yes

Units are S.I. units (second, meters, Newtons, ...)
If the header above contains a line with 'inDegrees', this indicates whether rotational values are in degrees (yes) or radians (no).

endheader
time	pelvis_tilt	pelvis_list	pelvis_rotation	pelvis_tx	pelvis_ty	pelvis_tz	hip_flexion_r	hip_adduction_r	hip_rotation_r	knee_angle_r	ankle_angle_r	subtalar_angle_r	hip_flexion_l	hip_adduction_l	hip_rotation_l	knee_angle_l	ankle_angle_l	subtalar_angle_l	lumbar_extension	lumbar_bending	lumbar_rotation
      6.20000000	     -2.09842255	     -0.03362809	   -102.13565596	      0.61537968	      0.98952051	      0.31202343	     -6.14774119	      9.12756273	     21.53383634	    -23.75890054	     15.12124938	     -8.06497953	     19.55366230	     -1.30000183	     17.39367983	    -13.36409097	     -0.81332803	     11.54091796	    -13.37457772	      1.86741035	      6.12392805
      6.21000000	     -2.00681752	     -0.08524665	   -102.60982638	      0.61492954	      0.99034960	      0.31927621	     -6.20935711	      8.94901911	     21.60573094	    -24.48009957	     14.58556355	     -7.18421357	     19.45584774	     -1.11939752	     16.90592059	    -14.19309048	     -0.77621687	     10.89232023	    -13.30436741	      1.70266158	      5.73866470
      6.22000000	     -1.93174105	     -0.15157448	   -103.09110436	      0.61439707	      0.99132548	      0.32650971	     -6.22136510	      8.78884118	     21.63648975	    -25.29849045	     13.96633301	     -6.27050004	     19.30463811	     -0.97426426	     16.36518496	    -14.96364081	     -0.54988904	     10.29930714	    -13.25781594	      1.54675577	      5.39141492
      6.23000000	     -1.88649707	     -0.22437196	   -103.57115259	      0.61380183	      0.99242366	      0.33373193	     -6.19590951	      8.65604048	     21.63850972	    -26.17716699	     13.25314269	     -5.23173982	     19.10604428	     -0.87125988	     15.81386392	    -15.67814527	     -0.17443876	      9.71411116	    -13.22745826	      1.41797975	      5.08656503
      6.24000000	     -1.88043480	     -0.30449095	   -104.05690350	      0.61315927	      0.99362055	      0.34092156	     -6.13384432	      8.55325249	     21.60014225	    -27.11417096	     12.45272883	     -4.06002194	     18.85085387	     -0.81762060	     15.27012371	    -16.32347062	      0.30589729	      9.15184631	    -13.22092289	      1.32911790	      4.82719994
      6.25000000	     -1.90219382	     -0.38833301	   -104.55144287	      0.61247254	      0.99488350	      0.34808334	     -6.02991770	      8.46268790	     21.50838415	    -28.10288017	     11.57071574	     -2.72652987	     18.53724291	     -0.80160209	     14.73700055	    -16.88467108	      0.84800777	      8.61401013	    -13.22974658	      1.26886876	      4.60078689
      6.26000000	     -1.95406260	     -0.47113030	   -105.07227120	      0.61171818	      0.99617894	      0.35518390	     -5.87489188	      8.38483609	     21.37078307	    -29.14871840	     10.61570730	     -1.25435084	     18.16794799	     -0.83166288	     14.19682978	    -17.35584893	      1.42640690	      8.11667823	    -13.25240618	      1.23819293	      4.42482691
      6.27000000	     -2.03304790	     -0.54981551	   -105.63171126	      0.61090232	      0.99746120	      0.36220496	     -5.65835800	      8.31066036	     21.18021561	    -30.25765682	      9.62352484	      0.36207425	     17.75161767	     -0.90390326	     13.64303566	    -17.74903766	      2.02950382	      7.65343397	    -13.28543927	      1.23332943	      4.33161864
      6.28000000	     -2.12850916	     -0.62057450	   -106.22899912	      0.61002165	      0.99869559	      0.36910539	     -5.36638150	      8.22992588	     20.92750534	    -31.43479719	      8.60904777	      2.12357486	     17.30513686	     -1.00728568	     13.06501774	    -18.07573952	      2.62115830	      7.22538131	    -13.32732052	      1.24386553	      4.29411588
      6.29000000	     -2.23180719	     -0.67890528	   -106.87493721	      0.60906056	      0.99983565	      0.37585913	     -4.98510767	      8.13130702	     20.60834261	    -32.68479667	      7.62469646	      4.01504313	     16.84447953	     -1.13600676	     12.44666819	    -18.35424713	      3.21312277	      6.82487108	    -13.37033224	      1.25731410	      4.32123372
      6.30000000	     -2.32239845	     -0.72115427	   -107.55332523	      0.60806410	      1.00084664	      0.38246148	     -4.50326689	      7.99536261	     20.21829575	    -34.00620342	      6.70751828	      6.02842365	     16.38893415	     -1.26223537	     11.79026592	    -18.59363909	      3.77907976	      6.45073842	    -13.40300733	      1.26120584	      4.37724140
      6.31000000	     -2.39150661	     -0.74451623	   -108.27683370	      0.60700885	      1.00169676	      0.38886645	     -3.90189075	      7.81016526	     19.74201623	    -35.40629012	      5.89193674	      8.10621455	     15.95503990	     -1.38163187	     11.08396120	    -18.81443893	      4.32885924	      6.09963528	    -13.42424209	      1.24350667	      4.46881015
      6.32000000	     -2.42260219	     -0.74949696	   -109.03101683	      0.60594021	      1.00236187	      0.39507352	     -3.17390079	      7.55719755	     19.17237997	    -36.87936270	      5.22181770	     10.20615934	     15.55927264	     -1.46959977	     10.33788302	    -19.03268386	      4.86030654	      5.76582958	    -13.42548505	      1.19076718	      4.57095307
      6.33000000	     -2.40886446	     -0.73901753	   -109.80742269	      0.60487761	      1.00284465	      0.40107509	     -2.31896155	      7.22486581	     18.49842718	    -38.41180303	      4.71973302	     12.23875155	     15.20643858	     -1.51506573	      9.57448744	    -19.25468955	      5.36484601	      5.44922210	    -13.40773714	      1.09896859	      4.67127021
      6.34000000	     -2.34221708	     -0.71370103	   -110.60420644	      0.60383453	      1.00314219	      0.40687224	     -1.33746638	      6.80508250	     17.73424657	    -39.98895686	      4.40171661	     14.08758861	     14.90733009	     -1.50916594	      8.78378628	    -19.49123028	      5.84953899	      5.14005118	    -13.36505061	      0.96146459	      4.75731978
      6.35000000	     -2.22654922	     -0.68347715	   -111.40671508	      0.60283880	      1.00328716	      0.41248971	     -0.25035515	      6.29554902	     16.87658418	    -41.58085895	      4.26076279	     15.63486794	     14.65062746	     -1.44742019	      7.99318382	    -19.73848202	      6.30853691	      4.83692210	    -13.30647070	      0.78484710	      4.81452047
      6.36000000	     -2.06931974	     -0.65610394	   -112.20774901	      0.60189820	      1.00332037	      0.41795361	      0.91814276	      5.70151396	     15.94051880	    -43.15345535	      4.27519160	     16.78890515	     14.42126304	     -1.33149881	      7.22497553	    -19.98566094	      6.74625359	      4.53439269	    -13.23753925	      0.57620301	      4.83758063
      6.37000000	     -1.88009934	     -0.64521253	   -113.00154369	      0.60101601	      1.00329432	      0.42329195	      2.13302920	      5.02949919	     14.94380157	    -44.67235069	      4.43641152	     17.42420938	     14.20418841	     -1.16548548	      6.47064274	    -20.23455912	      7.15236452	      4.23345453	    -13.17419648	      0.34220503	      4.81966309
      6.38000000	     -1.67481325	     -0.64779545	   -113.77774164	      0.60019164	      1.00324350	      0.42854468	      3.37012147	      4.30087651	     13.90261459	    -46.09856940	      4.72087101	     17.56618965	     13.98679112	     -0.96150348	      5.76587002	    -20.46899325	      7.54818158	      3.92309199	    -13.11318265	      0.10207614	      4.76045040
      6.39000000	     -1.46495408	     -0.65559119	   -114.52764847	      0.59942209	      1.00319081	      0.43372345	      4.61328857	      3.53634477	     12.82425013	    -47.39740431	      5.10698155	     17.18021156	     13.77801392	     -0.73534027	      5.09998156	    -20.69491794	      7.91076858	      3.58945562	    -13.05031292	     -0.12889012	      4.65297130
      6.40000000	     -1.27266495	     -0.67696670	   -115.24693575	      0.59867567	      1.00318617	      0.43887194	      5.81917850	      2.76735486	     11.72960377	    -48.53510586	      5.56186707	     16.21477865	     13.54625424	     -0.50216530	      4.50707769	    -20.89697186	      8.27858042	      3.22966974	    -12.99766982	     -0.33191008	      4.51126425
      6.41000000	     -1.11413649	     -0.73525268	   -115.93989204	      0.59793481	      1.00331252	      0.44398974	      6.93558350	      2.00451791	     10.63191261	    -49.47718959	      6.07768625	     14.84935045	     13.25460785	     -0.27319525	      3.94964716	    -21.06115196	      8.60323066	      2.88165172	    -12.99400785	     -0.50784195	      4.33262529
      6.42000000	     -0.98452269	     -0.81599903	   -116.60325146	      0.59715694	      1.00355738	      0.44909931	      7.96510904	      1.26289471	      9.53966565	    -50.21446144	      6.62901536	     13.22981350	     12.91232285	     -0.05266673	      3.41895039	    -21.17882229	      8.87281660	      2.53812553	    -13.01278375	     -0.65837148	      4.11900970
      6.43000000	     -0.92382322	     -0.90828246	   -117.23689510	      0.59634480	      1.00392640	      0.45415822	      8.88167364	      0.60301444	      8.46525063	    -50.72381395	      7.22579850	     11.39207705	     12.51391742	      0.12080974	      2.96358699	    -21.25831493	      9.18669874	      2.19584933	    -13.07575169	     -0.74229479	      3.90736928
      6.44000000	     -0.88349986	     -1.00963390	   -117.84973175	      0.59545112	      1.00440094	      0.45919036	      9.71223004	     -0.01512751	      7.41503593	    -51.02146720	      7.82275464	      9.57021010	     12.06979531	      0.28075350	      2.51017128	    -21.27455732	      9.42930314	      1.86934831	    -13.14750599	     -0.81178871	      3.66485408
      6.45000000	     -0.89122748	     -1.11694287	   -118.44378050	      0.59448465	      1.00495899	      0.46412408	     10.44688545	     -0.54990945	      6.38830180	    -51.11559217	      8.43951557	      7.81266795	     11.58573535	      0.40271801	      2.09615467	    -21.25795841	      9.66512197	      1.56064472	    -13.25286893	     -0.84503899	      3.45720749
      6.46000000	     -0.95234701	     -1.20508632	   -119.02565172	      0.59337860	      1.00558557	      0.46898907	     11.09075487	     -0.96553053	      5.40591263	    -50.99138910	      9.01927524	      6.16235290	     11.06582521	      0.45768128	      1.66710293	    -21.18440567	      9.93112242	      1.26311132	    -13.35933716	     -0.82207741	      3.21948759
      6.47000000	     -1.03141760	     -1.28509260	   -119.60612445	      0.59215443	      1.00623551	      0.47372277	     11.67394667	     -1.30277202	      4.46349155	    -50.69357433	      9.58486899	      4.73763231	     10.52708686	      0.48587919	      1.22969580	    -21.06838552	     10.17307953	      0.99055896	    -13.47168349	     -0.79249739	      3.00563243
      6.48000000	     -1.12889136	     -1.34717299	   -120.19256528	      0.59079416	      1.00688224	      0.47831118	     12.20846011	     -1.54750854	      3.56917179	    -50.23381837	     10.11603277	      3.54320008	      9.97761724	      0.47846905	      0.76656106	    -20.91123656	     10.41093651	      0.73892027	    -13.58034861	     -0.75013988	      2.80535316
